<?xml version="1.0" encoding="utf-8"?>
<!-- Generator: Adobe Illustrator 22.0.0, SVG Export Plug-In . SVG Version: 6.00 Build 0)  -->
<svg version="1.1" id="图层_1" xmlns="http://www.w3.org/2000/svg" xmlns:xlink="http://www.w3.org/1999/xlink" x="0px" y="0px"
	 viewBox="0 0 200 200" style="enable-background:new 0 0 200 200;" xml:space="preserve">
<style type="text/css">
	.st0{fill:#FFFFFF;}
</style>
<path class="st0" d="M51,122.6l61.4-65.1l27.5,25.9l-61.4,65.1L51,122.6L51,122.6z M101,82.6c-0.6,0.4-1.4,0.8-2,1.4
	c-8.2,8.6-16.3,17.3-24.5,25.9c-2.9,3.1-5.9,6.2-8.8,9.4c-0.8,0.9-1.9,1.9-1.1,3.1c0.9,1.2,2.2,2.3,3.5,3c0.5,0.3,1.9-0.5,2.5-1.2
	c6.3-6.5,12.4-13.2,18.7-19.8L104,88.9c0.8-0.9,1.7-1.8,1-3.1C104.2,84.2,102.7,83,101,82.6z M113.4,69.8c-0.8,0.4-1.4,0.5-1.8,0.9
	c-1.2,1.1-2.2,2.3-3.3,3.5c-0.2,0.2-0.4,0.5-0.4,0.9c-0.3,2.3,1.6,2.9,3,3.9c1.1,0.8,2,0.4,2.8-0.5c0.9-0.9,1.8-1.9,2.6-2.8
	c1.1-1.3,1.1-2.5-0.2-3.7C115.3,71.2,114.3,70.5,113.4,69.8L113.4,69.8z M136.2,98.2l-9.9,10.5c-1.8,1.9-3.6,3.9-5.4,5.7
	c-1,1-0.7,1.8,0.2,2.5c1.4,1.2,3.1,1.1,4.7-0.5c2.4-2.4,4.7-4.9,7-7.3c0.4-0.4,0.7-1,1-1.5l2.5,2.5l-7.7,8c-2.1,2.1-2.3,4-0.8,5.4
	c1.5,1.4,3.2,1,5.3-1.1c2.7-2.5,5.5-5,8.2-7.5l-0.3-0.6l2.3,2.2l-6.6,6.9c-0.6,0.6-1.1,1.1-1.7,1.7c-1.6,1.7-1.7,3.5-0.4,4.8
	c1.3,1.3,3.2,1.1,4.8-0.5c2.1-2.2,4.2-4.4,6.4-6.6c0.6-0.7,1.2-1.3,2-2.2l2.3,2.4l-7.5,7.9c-0.4,0.4-0.8,0.8-1.2,1.3
	c-1.1,1.4-1.1,3.1,0,4.2c1.1,1.2,3,1.3,4.4,0.1c0.9-0.7,1.6-1.6,2.4-2.4c2.3-2.1,4.5-4.1,6.9-6.2c1.8,1.4,1.9,4.5-0.3,6.8
	c-4,4.2-8.1,8.4-12.1,12.7c-2.1,2.2-4.2,4.4-6.4,6.6c-2.7,2.7-5.5,2.8-8.2,0.2c-7.3-7-14.6-14-21.9-21.1l-1.5-1.4l-5.6,5.9
	c1.7,1.8,3.3,3.5,5,5.1c8.2,8,16.5,15.9,24.8,23.9c2.6,2.5,4.7,2.5,7.2-0.2c10.4-10.7,20.7-21.4,31-32.2c2.1-2.2,2.2-4.6,0.1-6.6
	c-10-9.7-20.1-19.3-30.1-29C136.8,98.5,136.6,98.4,136.2,98.2L136.2,98.2z M88.5,63.6L76.6,75.9c-0.9,0.9-1.8,1.8-2.7,2.8
	c-1.6,1.8-0.8,4.7,1.5,5.3c0.7,0.2,1.8,0,2.3-0.5c6.8-7.1,13.6-14.3,20.3-21.5c0.1-0.1,0.1-0.3,0.3-0.5l-12.5-12l-14.5-14
	c-2.5-2.4-4.7-2.4-7.1,0.1L33.4,67.6c-2.5,2.6-2.4,4.7,0.2,7.2c8.9,8.6,17.9,17.3,26.8,25.9c0.2,0.2,0.4,0.3,0.7,0.5l5.1-5.4
	c-2.8-3.1-5.5-6.3-8.3-9.1c-4-4-8.2-7.9-12.2-11.9c-2.4-2.4-2.4-5.3-0.1-7.7c6.2-6.5,12.4-12.9,18.6-19.3c2.1-2.2,5-2.5,7.2-0.5
	C77.1,52.6,82.7,58,88.5,63.6z M124.9,44.2c3.7-3.8,7.1-7.6,10.9-11.1c2.9-2.7,7.4-2.2,10.5,0.7c5.2,4.8,10.3,9.6,15.3,14.4
	c3.1,2.9,3.8,7.4,1.3,10.5c-3.2,4-6.9,7.6-10.4,11.5L124.9,44.2z M140.5,38.5l-5.1,5.4l16.7,15.7l5.1-5.4
	C157.2,54.3,140.5,38.5,140.5,38.5z M75,152.2c-0.5,0.2-0.7,0.3-1,0.4c-10.4,4-20.7,7.9-31.1,11.9c-1.7,0.7-3.4,0.7-4.8-0.6
	c-1.4-1.3-1.5-2.9-1-4.6c0.1-0.3,0.2-0.6,0.3-0.9l8.8-28l1.3-4L75,152.2z M49.9,135.4l-2,6.1c-0.6,1.9-1.2,3.9-1.9,5.8
	c-0.3,0.9-0.1,1.5,0.6,2.1c1.9,1.7,3.7,3.5,5.6,5.3c0.3,0.3,0.9,0.6,1.2,0.5c4-1.5,8.1-3,12.4-4.7L49.9,135.4z M142.7,80.5l7.1-7.5
	l-27.5-26l-7.1,7.5L142.7,80.5L142.7,80.5z"/>
<path class="st0" d="M64.9,76.2c-5.9-0.1-10.6-4.8-10.5-10.6c0.1-5.8,4.9-10.5,10.5-10.4c5.9,0.1,10.6,4.9,10.4,10.6
	C75.3,71.8,70.7,76.3,64.9,76.2z M60.8,65.9c0,2.3,1.9,4.1,4.2,4.1c0,0,0,0,0.1,0c2.3,0,4.2-1.9,4.2-4.2c0-2.3-1.9-4.2-4.3-4.2
	S60.7,63.6,60.8,65.9C60.8,65.9,60.8,65.9,60.8,65.9z"/>
</svg>
